# xmcd CD database file
#
# Track frame offsets:
#	150
#	23730
#	41719
#	65559
#	85246
#	106193
#	133637
#	154057
#	178236
#	198731
#	221313
#	245567
#	268102
#	291141
#
# Disc length: 4244 seconds
#
# Revision: 3
# Processed by: cddbd v1.5.1PL0 Copyright (c) Steve Scherf et al.
# Submitted via: CDex 1.50beta10
#
DISCID=cf10920e
DTITLE=BEGIN - BEGIN シングル大全集　DISC2
DYEAR=2005
DGENRE=JPop
TTITLE0=未来の君へ
TTITLE1=防波堤で見た景色
TTITLE2=愛を捨てないで
TTITLE3=涙そうそう
TTITLE4=風よ
TTITLE5=灯り
TTITLE6=ボトル二本とチョコレート
TTITLE7=島人ぬ宝
TTITLE8=オジー自慢のオリオンビール
TTITLE9=その時生まれたもの
TTITLE10=いつまでも
TTITLE11=ユガフ島
TTITLE12=誓い
TTITLE13=君を見ている
EXTD=YEAR: 2005
EXTT0=
EXTT1=
EXTT2=
EXTT3=
EXTT4=
EXTT5=
EXTT6=
EXTT7=
EXTT8=
EXTT9=
EXTT10=
EXTT11=
EXTT12=
EXTT13=
PLAYORDER=
